# xmcd
#
# Track frame offsets: 
#        150
#        19895
#        38974
#        55986
#        85926
#        103297
#        132895
#        149411
#
# Disc length: 2210 seconds
#
# Revision: 1
# Processed by: cddbd v1.5.2PL0 Copyright (c) Steve Scherf et al.
# Submitted via: ExactAudioCopy v1.3
#
DISCID=7108a008
DTITLE=Michael Henderson - Slingshot
DYEAR=1981
DGENRE=Funk - Soul
TTITLE0=Slingshot
TTITLE1=Never Gonna Give You Up
TTITLE2=Michael Henderson Feat. Phyllis Hyman - Can't We Fall In Love 
TTITLE2=Again
TTITLE3=Take Care
TTITLE4=Make It Easy On Yourself
TTITLE5=(We Are Here To) Geek You Up
TTITLE6=In It For The Goodies
TTITLE7=Come To Me
EXTD=
EXTT0=
EXTT1=
EXTT2=
EXTT3=
EXTT4=
EXTT5=
EXTT6=
EXTT7=
PLAYORDER=
